HIERARCHY
ROOT Hips
{
	OFFSET 53.407600 -4.761965 91.581299
	CHANNELS 6 Xposition Yposition Zposition Xrotation Yrotation Zrotation
	JOINT spine
	{
		OFFSET 0.000000 -0.393702 6.846367
		CHANNELS 3 Xrotation Yrotation Zrotation
		JOINT spine1
		{
			OFFSET 0.000000 -0.000001 9.496208
			CHANNELS 3 Xrotation Yrotation Zrotation
			JOINT spine2
			{
				OFFSET 0.000000 -0.000001 9.099091
				CHANNELS 3 Xrotation Yrotation Zrotation
				JOINT Neck
				{
					OFFSET 0.000000 -1.113784 23.361206
					CHANNELS 3 Xrotation Yrotation Zrotation
					JOINT Head
					{
						OFFSET 0.000000 -0.000001 7.058014
						CHANNELS 3 Xrotation Yrotation Zrotation
						End Site
						{
							OFFSET 0.000000 5.634187 17.084396
						}
					}
				}
				JOINT RightShoulder
				{
					OFFSET -3.831360 0.533490 9.826309
					CHANNELS 3 Xrotation Yrotation Zrotation
					JOINT RightArm
					{
						OFFSET 0.000000 -0.000002 12.888092
						CHANNELS 3 Xrotation Yrotation Zrotation
						JOINT RightArmRoll
						{
							OFFSET 0.000000 -0.000001 6.506165
							CHANNELS 3 Xrotation Yrotation Zrotation
							JOINT RightForeArm
							{
								OFFSET 0.000000 -0.000003 18.950104
								CHANNELS 3 Xrotation Yrotation Zrotation
								JOINT RightForeArmRoll
								{
									OFFSET 0.000000 -0.000001 7.300934
									CHANNELS 3 Xrotation Yrotation Zrotation
									JOINT RightHand
									{
										OFFSET 0.000000 -0.000002 14.651398
										CHANNELS 3 Xrotation Yrotation Zrotation
										End Site
										{
											OFFSET 0.000000 0.000000 0.100006
										}
									}
								}
							}
						}
					}
				}
				JOINT LeftShoulder
				{
					OFFSET 3.831360 0.533490 9.826309
					CHANNELS 3 Xrotation Yrotation Zrotation
					JOINT LeftArm
					{
						OFFSET 0.000000 -0.000002 12.888092
						CHANNELS 3 Xrotation Yrotation Zrotation
						JOINT LeftArmRoll
						{
							OFFSET 0.000000 -0.000001 6.506165
							CHANNELS 3 Xrotation Yrotation Zrotation
							JOINT LeftForeArm
							{
								OFFSET 0.000000 -0.000003 18.950104
								CHANNELS 3 Xrotation Yrotation Zrotation
								JOINT LeftForeArmRoll
								{
									OFFSET 0.000000 -0.000001 7.300934
									CHANNELS 3 Xrotation Yrotation Zrotation
									JOINT LeftHand
									{
										OFFSET 0.000000 -0.000002 14.651398
										CHANNELS 3 Xrotation Yrotation Zrotation
										End Site
										{
											OFFSET 0.000000 0.000000 0.100006
										}
									}
								}
							}
						}
					}
				}
			}
		}
	}
	JOINT RightUpLeg
	{
		OFFSET -6.068371 0.933477 -1.112778
		CHANNELS 3 Xrotation Yrotation Zrotation
		JOINT RightUpLegRoll
		{
			OFFSET 0.000000 -0.000003 17.179596
			CHANNELS 3 Xrotation Yrotation Zrotation
			JOINT RightLeg
			{
				OFFSET 0.000000 0.000004 -21.274300
				CHANNELS 3 Xrotation Yrotation Zrotation
				JOINT RightLegRoll
				{
					OFFSET 0.000000 -0.000004 21.343903
					CHANNELS 3 Xrotation Yrotation Zrotation
					JOINT RightFoot
					{
						OFFSET 0.000000 -0.000003 17.765198
						CHANNELS 3 Xrotation Yrotation Zrotation
						JOINT RightToeBase
						{
							OFFSET 0.000000 -0.000002 14.850792
							CHANNELS 3 Xrotation Yrotation Zrotation
							End Site
							{
								OFFSET 0.006294 0.829004 7.192139
							}
						}
					}
				}
			}
		}
	}
	JOINT LeftUpLeg
	{
		OFFSET 6.068371 0.933477 -1.112778
		CHANNELS 3 Xrotation Yrotation Zrotation
		JOINT LeftUpLegRoll
		{
			OFFSET 0.000000 -0.000003 17.179703
			CHANNELS 3 Xrotation Yrotation Zrotation
			JOINT LeftLeg
			{
				OFFSET 0.000000 -0.000003 21.274200
				CHANNELS 3 Xrotation Yrotation Zrotation
				JOINT LeftLegRoll
				{
					OFFSET 0.000000 -0.000004 21.541199
					CHANNELS 3 Xrotation Yrotation Zrotation
					JOINT LeftFoot
					{
						OFFSET 0.000000 -0.000003 17.567902
						CHANNELS 3 Xrotation Yrotation Zrotation
						JOINT LeftToeBase
						{
							OFFSET 0.000000 -0.000002 14.850800
							CHANNELS 3 Xrotation Yrotation Zrotation
							End Site
							{
								OFFSET -0.028210 0.829004 7.192139
							}
						}
					}
				}
			}
		}
	}
}
MOTION
Frames: 8
Frame Time: 0.041667
53.626499 -4.416406 91.643501 -5.928230 -0.028691 -0.971450 -1.823922 -0.115963 -0.076672 0.355267 -0.239831 -0.162756 2.000345 -0.241768 -0.159771 32.025722 4.810100 -0.872604 -11.736513 -2.617037 -0.484843 16.934219 -65.172251 18.330122 -64.071696 -132.165335 -91.146627 0.000001 0.000000 -0.000004 71.991403 -2.930607 -0.304124 0.000008 -0.000001 -2.999996 -5.000210 -7.998709 0.000155 10.702858 69.737188 -10.565597 -65.112344 139.617727 93.396150 -0.000002 0.000020 0.000008 68.685871 9.760680 -4.227173 -0.000001 -0.000010 3.009948 -5.000251 7.998752 -0.000161 2.536179 -175.771134 1.508761 -179.999991 0.000005 -1.175006 174.725514 -1.903908 -0.248729 0.000008 0.000002 0.037491 68.596307 6.925538 2.081367 25.456959 -7.355616 0.000010 5.822330 175.635541 -0.472811 -0.000005 -0.000004 -1.222610 -4.888018 1.440394 0.196005 -0.000003 0.000003 -0.035123 68.760976 -6.913669 -2.080017 25.456960 7.355614 0.000001 
53.626598 -4.413309 91.641602 -5.913470 -0.032393 -0.985980 -1.824752 -0.114145 -0.076423 0.353629 -0.235259 -0.163227 1.998707 -0.237213 -0.160287 32.030285 4.808859 -0.873032 -11.798196 -2.619075 -0.486622 16.796017 -65.152191 18.180415 -64.063841 -132.104943 -91.272118 0.000002 -0.000001 -0.000004 71.961084 -2.945950 -0.286948 0.000008 -0.000002 -2.999999 -5.000207 -7.998716 0.000152 10.539305 69.680893 -10.395504 -65.073418 139.529112 93.394852 0.000001 0.000020 0.000008 68.676405 9.751759 -4.232526 -0.000003 -0.000009 3.009951 -5.000248 7.998753 -0.000159 2.517600 -175.764086 1.511607 -179.999991 0.000005 -1.175006 174.722837 -1.906892 -0.249093 0.000008 0.000001 0.037492 68.595774 6.925539 2.081200 25.456953 -7.355615 0.000010 5.808807 175.638424 -0.474200 -0.000005 -0.000004 -1.222620 -4.890704 1.447512 0.196015 -0.000003 0.000003 -0.035175 68.760033 -6.913681 -2.080078 25.456962 7.355614 0.000001 
53.626999 -4.415229 91.636391 -5.898980 -0.035875 -1.000180 -1.825645 -0.112440 -0.076187 0.351859 -0.230923 -0.163654 1.996936 -0.232897 -0.160756 32.035479 4.808229 -0.873545 -11.856387 -2.621789 -0.488336 16.665892 -65.131919 18.039720 -64.056444 -132.043498 -91.388327 0.000003 -0.000001 -0.000003 71.929521 -2.961092 -0.269911 0.000007 0.000000 -2.999998 -5.000209 -7.998713 0.000156 10.386238 69.627208 -10.236447 -65.039117 139.439173 93.392209 0.000000 0.000021 0.000009 68.666726 9.742848 -4.237367 -0.000002 -0.000006 3.009949 -5.000251 7.998754 -0.000160 2.499417 -175.758034 1.514145 -179.999991 0.000005 -1.175006 174.720323 -1.908870 -0.249361 0.000008 0.000001 0.037493 68.595351 6.925510 2.081020 25.456955 -7.355616 0.000010 5.795655 175.641306 -0.475309 -0.000005 -0.000004 -1.222620 -4.893159 1.454134 0.196024 -0.000003 0.000002 -0.035228 68.759193 -6.913701 -2.080135 25.456965 7.355613 0.000000 
53.619202 -4.418838 91.640091 -5.884953 -0.038955 -1.013955 -1.826547 -0.110900 -0.075965 0.350030 -0.226948 -0.164008 1.995116 -0.228938 -0.161150 32.040902 4.808311 -0.874218 -11.910281 -2.625233 -0.490064 16.544742 -65.111251 17.909067 -64.051438 -131.980073 -91.496982 0.000001 -0.000004 -0.000005 71.896723 -2.976092 -0.253011 0.000006 -0.000002 -3.000002 -5.000209 -7.998711 0.000154 10.246014 69.576924 -10.090866 -65.011680 139.346501 93.392346 0.000001 0.000021 0.000009 68.657731 9.734199 -4.241912 -0.000002 -0.000011 3.009944 -5.000247 7.998752 -0.000162 2.481866 -175.751955 1.516277 -179.999991 0.000006 -1.175006 174.718001 -1.910863 -0.249623 0.000008 0.000001 0.037494 68.594914 6.925484 2.080842 25.456959 -7.355617 0.000010 5.783062 175.643205 -0.476223 -0.000005 -0.000005 -1.222630 -4.895353 1.460107 0.196035 -0.000004 0.000002 -0.035281 68.758353 -6.913721 -2.080191 25.456962 7.355613 0.000000 
53.619900 -4.418317 91.643204 -5.871542 -0.041452 -1.027213 -1.827424 -0.109572 -0.075753 0.348228 -0.223457 -0.164257 1.993315 -0.225460 -0.161434 32.046274 4.809196 -0.875153 -11.958876 -2.629440 -0.491862 16.433468 -65.090009 17.789518 -64.047592 -131.914831 -91.595664 0.000002 -0.000001 -0.000003 71.862299 -2.991076 -0.236253 0.000008 0.000000 -3.000001 -5.000207 -7.998708 0.000154 10.121083 69.531039 -9.961302 -64.992030 139.250687 93.396860 -0.000001 0.000022 0.000009 68.650095 9.726349 -4.246726 -0.000002 -0.000008 3.009948 -5.000251 7.998753 -0.000160 2.465189 -175.746928 1.517816 -179.999991 0.000005 -1.175006 174.715952 -1.912842 -0.248878 0.000008 0.000001 0.037495 68.594504 6.925489 2.080770 25.456957 -7.355616 0.000010 5.771234 175.645104 -0.476825 -0.000005 -0.000004 -1.222630 -4.897204 1.465263 0.196046 -0.000004 0.000002 -0.035335 68.757732 -6.913752 -2.080235 25.456965 7.355615 0.000001 
53.620800 -4.416080 91.640602 -5.858941 -0.043183 -1.039851 -1.828222 -0.108509 -0.075552 0.346533 -0.220572 -0.164371 1.991614 -0.222586 -0.161578 32.051096 4.810983 -0.876395 -12.001472 -2.634465 -0.493812 16.332919 -65.068009 17.682091 -64.045748 -131.847171 -91.685010 0.000003 0.000001 -0.000003 71.826358 -3.006081 -0.219636 0.000007 0.000002 -2.999999 -5.000207 -7.998710 0.000157 10.013904 69.490631 -9.850307 -64.983888 139.149409 93.412406 0.000001 0.000020 0.000008 68.644842 9.719424 -4.251781 -0.000002 -0.000010 3.009950 -5.000250 7.998753 -0.000161 2.449588 -175.742885 1.518629 -179.999991 0.000005 -1.175006 174.714245 -1.914823 -0.249118 0.000008 0.000001 0.037495 68.594183 6.925469 2.080586 25.456957 -7.355616 0.000010 5.760348 175.647003 -0.477097 -0.000005 -0.000005 -1.222630 -4.898674 1.469435 0.196057 -0.000004 0.000002 -0.035390 68.757213 -6.913791 -2.080275 25.456967 7.355614 0.000001 
53.619202 -4.417517 91.638992 -5.847319 -0.043965 -1.051782 -1.828904 -0.107758 -0.075360 0.345023 -0.218418 -0.164322 1.990105 -0.220439 -0.161549 32.055263 4.813748 -0.878071 -12.036965 -2.640358 -0.495971 16.243928 -65.044977 17.587758 -64.046704 -131.776424 -91.765292 0.000001 0.000001 -0.000004 71.788635 -3.021229 -0.203137 0.000007 -0.000000 -3.000000 -5.000208 -7.998714 0.000154 9.926843 69.456713 -9.760346 -64.987481 139.042735 93.439433 -0.000001 0.000021 0.000009 68.642670 9.713962 -4.257727 -0.000003 -0.000008 3.009947 -5.000249 7.998753 -0.000158 2.435319 -175.739838 1.518567 -179.999991 0.000005 -1.175006 174.712919 -1.915826 -0.249255 0.000008 0.000002 0.037497 68.593862 6.925484 2.080409 25.456959 -7.355617 0.000010 5.750642 175.647931 -0.477121 -0.000005 -0.000004 -1.222630 -4.899721 1.472482 0.196069 -0.000003 0.000002 -0.035445 68.756810 -6.913838 -2.080408 25.456960 7.355613 0.000001 
53.620300 -4.414836 91.638794 -5.836872 -0.043614 -1.062908 -1.829434 -0.107371 -0.075174 0.343784 -0.217118 -0.164077 1.988863 -0.219140 -0.161316 32.058374 4.817587 -0.880244 -12.064565 -2.647168 -0.498412 16.167469 -65.020935 17.507650 -64.051301 -131.701934 -91.836948 0.000002 -0.000001 -0.000004 71.749013 -3.036573 -0.186787 0.000006 -0.000002 -2.999999 -5.000209 -7.998709 0.000156 9.862220 69.430068 -9.693813 -65.007500 138.927960 93.485817 -0.000000 0.000022 0.000007 68.644658 9.710174 -4.264718 -0.000003 -0.000008 3.009948 -5.000250 7.998751 -0.000158 2.422607 -175.738800 1.517464 -179.999991 0.000005 -1.175006 174.712032 -1.915823 -0.249285 0.000008 0.000002 0.037499 68.593650 6.925470 2.080320 25.456957 -7.355615 0.000009 5.742280 175.648860 -0.476782 -0.000005 -0.000004 -1.222630 -4.900265 1.474214 0.196079 -0.000003 0.000002 -0.035500 68.756707 -6.913831 -2.080514 25.456959 7.355617 0.000000 
